<svg width="48" height="48" viewBox="0 0 48 48" xmlns="http://www.w3.org/2000/svg">
  <!-- Beaker base -->
  <path d="M12 35 Q12 40 18 40 L30 40 Q36 40 36 35 L36 30 Q34 28 32 30 L16 30 Q14 28 12 30 Z" fill="none" stroke="#2b2b2b" stroke-width="2.5" stroke-linecap="round" transform="rotate(-1 24 35)"/>
  
  <!-- Beaker neck -->
  <rect x="20" y="15" width="8" height="15" fill="none" stroke="#2b2b2b" stroke-width="2" stroke-linecap="round" transform="rotate(1 24 22)"/>
  
  <!-- Beaker rim -->
  <line x1="18" y1="15" x2="30" y2="15" stroke="#2b2b2b" stroke-width="2.5" stroke-linecap="round" transform="rotate(-1 24 15)"/>
  
  <!-- Liquid inside -->
  <path d="M14 32 Q14 36 18 36 L30 36 Q34 36 34 32 L34 31 L14 31 Z" fill="none" stroke="#2b2b2b" stroke-width="1.5" opacity="0.6" transform="rotate(-1 24 33)"/>
  
  <!-- Bubbles -->
  <circle cx="20" cy="25" r="1" fill="none" stroke="#2b2b2b" stroke-width="1" opacity="0.5"/>
  <circle cx="28" cy="28" r="0.5" fill="#2b2b2b" opacity="0.4"/>
  <circle cx="24" cy="32" r="0.8" fill="none" stroke="#2b2b2b" stroke-width="1" opacity="0.5"/>
  
  <!-- Test tube holder/rack -->
  <line x1="6" y1="20" x2="42" y2="20" stroke="#2b2b2b" stroke-width="1.5" opacity="0.3" stroke-linecap="round" transform="rotate(1 24 20)"/>
  
  <!-- Small test tube -->
  <rect x="38" y="12" width="3" height="8" fill="none" stroke="#2b2b2b" stroke-width="1.5" stroke-linecap="round" transform="rotate(-2 39 16)"/>
  <circle cx="39" cy="12" r="1.5" fill="none" stroke="#2b2b2b" stroke-width="1" opacity="0.6"/>
  
  <!-- Sketch texture marks -->
  <path d="M8 38 L10 40" stroke="#2b2b2b" stroke-width="0.5" opacity="0.3"/>
  <path d="M38 42 L40 40" stroke="#2b2b2b" stroke-width="0.5" opacity="0.3"/>
</svg>